<mxfile host="app.diagrams.net" agent="Mozilla/5.0 (Windows NT 10.0; Win64; x64) AppleWebKit/537.36 (KHTML, like Gecko) Chrome/128.0.0.0 Safari/537.36 Edg/128.0.0.0" version="24.7.12">
  <diagram name="Page-1" id="ce2lQokXmLGuZG8tcmqd">
    <mxGraphModel dx="1698" dy="470" grid="1" gridSize="10" guides="1" tooltips="1" connect="1" arrows="1" fold="1" page="1" pageScale="1" pageWidth="827" pageHeight="1169" math="0" shadow="0">
      <root>
        <mxCell id="0" />
        <mxCell id="1" parent="0" />
        <mxCell id="ujxeKUffUeWoLccXir3N-5" value="&lt;div&gt;&lt;span style=&quot;background-color: initial;&quot;&gt;&lt;b&gt;Usage Request&amp;nbsp;&lt;/b&gt;&lt;/span&gt;&lt;/div&gt;&lt;div&gt;&lt;span style=&quot;background-color: initial;&quot;&gt;&lt;br&gt;&lt;/span&gt;&lt;/div&gt;&lt;div&gt;&lt;span style=&quot;background-color: initial;&quot;&gt;GET /890uvw&lt;/span&gt;&lt;br&gt;&lt;/div&gt;&lt;div&gt;&lt;div&gt;&lt;br&gt;&lt;/div&gt;&lt;/div&gt;&lt;div&gt;&lt;b&gt;Usage Response&lt;/b&gt;&lt;/div&gt;301 Moved Permanently&lt;div&gt;Location:&amp;nbsp;&lt;span style=&quot;background-color: initial;&quot;&gt;&quot;https://long-acme-url-to-shorten.com&quot;&lt;/span&gt;&lt;/div&gt;&lt;div style=&quot;&quot;&gt;&lt;br&gt;&lt;/div&gt;" style="text;html=1;align=left;verticalAlign=middle;whiteSpace=wrap;rounded=0;fillColor=default;" parent="1" vertex="1">
          <mxGeometry x="200" y="610" width="270" height="110" as="geometry" />
        </mxCell>
        <mxCell id="ujxeKUffUeWoLccXir3N-22" style="edgeStyle=orthogonalEdgeStyle;rounded=0;orthogonalLoop=1;jettySize=auto;html=1;entryX=0;entryY=0.75;entryDx=0;entryDy=0;exitX=1.008;exitY=0.257;exitDx=0;exitDy=0;exitPerimeter=0;" parent="1" source="ujxeKUffUeWoLccXir3N-6" edge="1" target="ujxeKUffUeWoLccXir3N-18">
          <mxGeometry relative="1" as="geometry">
            <mxPoint x="270" y="357.4999999999998" as="sourcePoint" />
            <mxPoint x="880" y="359.9999999999998" as="targetPoint" />
            <Array as="points">
              <mxPoint x="269" y="361" />
            </Array>
          </mxGeometry>
        </mxCell>
        <mxCell id="ujxeKUffUeWoLccXir3N-24" style="edgeStyle=orthogonalEdgeStyle;rounded=0;orthogonalLoop=1;jettySize=auto;html=1;entryX=0.043;entryY=0.824;entryDx=0;entryDy=0;exitX=1.011;exitY=0.855;exitDx=0;exitDy=0;exitPerimeter=0;entryPerimeter=0;" parent="1" source="ujxeKUffUeWoLccXir3N-6" target="ujxeKUffUeWoLccXir3N-16" edge="1">
          <mxGeometry relative="1" as="geometry" />
        </mxCell>
        <mxCell id="ujxeKUffUeWoLccXir3N-6" value="&lt;font style=&quot;font-size: 18px;&quot;&gt;Short.ly API&lt;/font&gt;" style="shape=process;whiteSpace=wrap;html=1;backgroundOutline=1;" parent="1" vertex="1">
          <mxGeometry x="-60" y="240" width="190" height="570" as="geometry" />
        </mxCell>
        <mxCell id="ujxeKUffUeWoLccXir3N-17" value="" style="group" parent="1" vertex="1" connectable="0">
          <mxGeometry x="630" y="570" width="180" height="190" as="geometry" />
        </mxCell>
        <mxCell id="ujxeKUffUeWoLccXir3N-16" value="" style="rounded=0;whiteSpace=wrap;html=1;" parent="ujxeKUffUeWoLccXir3N-17" vertex="1">
          <mxGeometry width="180" height="190" as="geometry" />
        </mxCell>
        <mxCell id="ujxeKUffUeWoLccXir3N-7" value="" style="shape=actor;whiteSpace=wrap;html=1;" parent="ujxeKUffUeWoLccXir3N-17" vertex="1">
          <mxGeometry x="30" y="25" width="40" height="60" as="geometry" />
        </mxCell>
        <mxCell id="ujxeKUffUeWoLccXir3N-8" value="" style="shape=actor;whiteSpace=wrap;html=1;" parent="ujxeKUffUeWoLccXir3N-17" vertex="1">
          <mxGeometry x="40" y="35" width="40" height="60" as="geometry" />
        </mxCell>
        <mxCell id="ujxeKUffUeWoLccXir3N-9" value="" style="shape=actor;whiteSpace=wrap;html=1;" parent="ujxeKUffUeWoLccXir3N-17" vertex="1">
          <mxGeometry x="50" y="45" width="40" height="60" as="geometry" />
        </mxCell>
        <mxCell id="ujxeKUffUeWoLccXir3N-10" value="" style="shape=actor;whiteSpace=wrap;html=1;" parent="ujxeKUffUeWoLccXir3N-17" vertex="1">
          <mxGeometry x="60" y="55" width="40" height="60" as="geometry" />
        </mxCell>
        <mxCell id="ujxeKUffUeWoLccXir3N-11" value="" style="shape=actor;whiteSpace=wrap;html=1;" parent="ujxeKUffUeWoLccXir3N-17" vertex="1">
          <mxGeometry x="70" y="65" width="40" height="60" as="geometry" />
        </mxCell>
        <mxCell id="ujxeKUffUeWoLccXir3N-12" value="" style="shape=actor;whiteSpace=wrap;html=1;" parent="ujxeKUffUeWoLccXir3N-17" vertex="1">
          <mxGeometry x="80" y="75" width="40" height="60" as="geometry" />
        </mxCell>
        <mxCell id="ujxeKUffUeWoLccXir3N-13" value="" style="shape=actor;whiteSpace=wrap;html=1;" parent="ujxeKUffUeWoLccXir3N-17" vertex="1">
          <mxGeometry x="90" y="85" width="40" height="60" as="geometry" />
        </mxCell>
        <mxCell id="ujxeKUffUeWoLccXir3N-14" value="" style="shape=actor;whiteSpace=wrap;html=1;" parent="ujxeKUffUeWoLccXir3N-17" vertex="1">
          <mxGeometry x="100" y="95" width="40" height="60" as="geometry" />
        </mxCell>
        <mxCell id="ujxeKUffUeWoLccXir3N-15" value="" style="shape=actor;whiteSpace=wrap;html=1;" parent="ujxeKUffUeWoLccXir3N-17" vertex="1">
          <mxGeometry x="110" y="105" width="40" height="60" as="geometry" />
        </mxCell>
        <mxCell id="ujxeKUffUeWoLccXir3N-18" value="" style="shape=actor;whiteSpace=wrap;html=1;" parent="1" vertex="1">
          <mxGeometry x="680" y="270" width="60" height="120" as="geometry" />
        </mxCell>
        <mxCell id="ujxeKUffUeWoLccXir3N-21" style="edgeStyle=orthogonalEdgeStyle;rounded=0;orthogonalLoop=1;jettySize=auto;html=1;entryX=1.019;entryY=0.02;entryDx=0;entryDy=0;entryPerimeter=0;exitX=0.5;exitY=0;exitDx=0;exitDy=0;" parent="1" source="ujxeKUffUeWoLccXir3N-18" target="ujxeKUffUeWoLccXir3N-6" edge="1">
          <mxGeometry relative="1" as="geometry" />
        </mxCell>
        <mxCell id="ujxeKUffUeWoLccXir3N-3" value="&lt;div&gt;&lt;b&gt;Create Request&lt;/b&gt;&lt;/div&gt;&lt;div&gt;&lt;br&gt;&lt;/div&gt;&lt;div&gt;POST /shorten&lt;div&gt;application/json&lt;/div&gt;&lt;div&gt;&lt;br&gt;&lt;/div&gt;&lt;div&gt;{&lt;/div&gt;&lt;div&gt;&amp;nbsp; &quot;longlyUrl&quot;: &quot;https://long-acme-url-to-shorten.com&quot;&lt;/div&gt;&lt;div&gt;}&lt;/div&gt;&lt;/div&gt;&lt;div&gt;&lt;br&gt;&lt;/div&gt;&lt;div&gt;&lt;b&gt;Create Response&lt;/b&gt;&lt;/div&gt;&lt;div&gt;&lt;br&gt;&lt;/div&gt;201 Created&lt;div&gt;application/json&lt;/div&gt;&lt;div style=&quot;&quot;&gt;&lt;font style=&quot;font-size: 12px;&quot;&gt;{&lt;/font&gt;&lt;/div&gt;&lt;div style=&quot;&quot;&gt;&lt;font style=&quot;font-size: 12px;&quot;&gt;&amp;nbsp; &quot;shortlyUrl&quot;: &quot;https://short.ly/890uvw&quot;,&lt;/font&gt;&lt;/div&gt;&lt;div style=&quot;&quot;&gt;&lt;font style=&quot;font-size: 12px;&quot;&gt;&amp;nbsp; &quot;longlyUrl&quot;: &quot;https://long-acme-url-to-shorten.com&quot;,&lt;/font&gt;&lt;/div&gt;&lt;div style=&quot;&quot;&gt;&lt;font style=&quot;font-size: 12px;&quot;&gt;&amp;nbsp; &quot;expiresAt&quot;: &quot;YYYY-MM-DDTHH:MM:SSZ&quot;&amp;nbsp;&lt;/font&gt;&lt;/div&gt;&lt;div style=&quot;&quot;&gt;&lt;font style=&quot;font-size: 12px;&quot;&gt;}&lt;/font&gt;&lt;/div&gt;" style="text;html=1;align=left;verticalAlign=middle;whiteSpace=wrap;rounded=0;fillColor=default;" parent="1" vertex="1">
          <mxGeometry x="330" y="180" width="296" height="260" as="geometry" />
        </mxCell>
        <mxCell id="ujxeKUffUeWoLccXir3N-23" style="edgeStyle=orthogonalEdgeStyle;rounded=0;orthogonalLoop=1;jettySize=auto;html=1;entryX=1.003;entryY=0.611;entryDx=0;entryDy=0;entryPerimeter=0;exitX=0.018;exitY=0.096;exitDx=0;exitDy=0;exitPerimeter=0;" parent="1" target="ujxeKUffUeWoLccXir3N-6" edge="1" source="ujxeKUffUeWoLccXir3N-16">
          <mxGeometry relative="1" as="geometry">
            <mxPoint x="810" y="527" as="sourcePoint" />
          </mxGeometry>
        </mxCell>
        <mxCell id="ujxeKUffUeWoLccXir3N-38" value="" style="rounded=0;whiteSpace=wrap;html=1;" parent="1" vertex="1">
          <mxGeometry x="-307" y="240" width="250" height="570" as="geometry" />
        </mxCell>
        <mxCell id="pKKKAvLooT5i3rfptj-m-1" value="" style="rounded=0;whiteSpace=wrap;html=1;" vertex="1" parent="1">
          <mxGeometry x="-557" y="240" width="250" height="570" as="geometry" />
        </mxCell>
        <mxCell id="pKKKAvLooT5i3rfptj-m-2" value="Data" style="text;html=1;align=center;verticalAlign=middle;whiteSpace=wrap;rounded=0;" vertex="1" parent="1">
          <mxGeometry x="-477" y="200" width="60" height="30" as="geometry" />
        </mxCell>
        <mxCell id="pKKKAvLooT5i3rfptj-m-3" value="Application" style="text;html=1;align=center;verticalAlign=middle;whiteSpace=wrap;rounded=0;" vertex="1" parent="1">
          <mxGeometry x="-217" y="200" width="60" height="30" as="geometry" />
        </mxCell>
        <mxCell id="ujxeKUffUeWoLccXir3N-37" value="Usage/Reporting Data Lake" style="shape=datastore;whiteSpace=wrap;html=1;" parent="1" vertex="1">
          <mxGeometry x="-535" y="680" width="130" height="90" as="geometry" />
        </mxCell>
        <mxCell id="ujxeKUffUeWoLccXir3N-25" value="KV Url Store" style="shape=datastore;whiteSpace=wrap;html=1;" parent="1" vertex="1">
          <mxGeometry x="-530" y="270" width="120" height="120" as="geometry" />
        </mxCell>
        <mxCell id="ujxeKUffUeWoLccXir3N-26" value="Distributed Cache" style="shape=cylinder3;whiteSpace=wrap;html=1;boundedLbl=1;backgroundOutline=1;size=15;" parent="1" vertex="1">
          <mxGeometry x="-530" y="512" width="120" height="80" as="geometry" />
        </mxCell>
        <mxCell id="ujxeKUffUeWoLccXir3N-45" style="edgeStyle=orthogonalEdgeStyle;rounded=0;orthogonalLoop=1;jettySize=auto;html=1;entryX=1;entryY=0.667;entryDx=0;entryDy=0;entryPerimeter=0;" parent="1" source="ujxeKUffUeWoLccXir3N-27" target="ujxeKUffUeWoLccXir3N-25" edge="1">
          <mxGeometry relative="1" as="geometry">
            <Array as="points" />
          </mxGeometry>
        </mxCell>
        <mxCell id="ujxeKUffUeWoLccXir3N-46" value="Write new URLs" style="edgeLabel;html=1;align=center;verticalAlign=middle;resizable=0;points=[];" parent="ujxeKUffUeWoLccXir3N-45" vertex="1" connectable="0">
          <mxGeometry x="-0.2316" y="-3" relative="1" as="geometry">
            <mxPoint as="offset" />
          </mxGeometry>
        </mxCell>
        <mxCell id="ujxeKUffUeWoLccXir3N-27" value="URL Generation logic&lt;div&gt;- Collision handling&lt;span style=&quot;background-color: initial;&quot;&gt;&amp;nbsp;&lt;/span&gt;&lt;/div&gt;&lt;div&gt;&lt;span style=&quot;background-color: initial;&quot;&gt;- TTL&lt;/span&gt;&lt;/div&gt;" style="rounded=0;whiteSpace=wrap;html=1;" parent="1" vertex="1">
          <mxGeometry x="-220" y="280" width="140" height="140" as="geometry" />
        </mxCell>
        <mxCell id="pKKKAvLooT5i3rfptj-m-4" style="edgeStyle=orthogonalEdgeStyle;rounded=0;orthogonalLoop=1;jettySize=auto;html=1;entryX=1;entryY=0.5;entryDx=0;entryDy=0;exitX=0.5;exitY=1;exitDx=0;exitDy=0;" edge="1" parent="1" source="ujxeKUffUeWoLccXir3N-30" target="ujxeKUffUeWoLccXir3N-37">
          <mxGeometry relative="1" as="geometry">
            <Array as="points">
              <mxPoint x="-150" y="725" />
            </Array>
          </mxGeometry>
        </mxCell>
        <mxCell id="ujxeKUffUeWoLccXir3N-30" value="read-through cache orchestration logic&lt;div&gt;- Expiry&lt;/div&gt;" style="rounded=0;whiteSpace=wrap;html=1;" parent="1" vertex="1">
          <mxGeometry x="-210" y="512" width="120" height="105" as="geometry" />
        </mxCell>
        <mxCell id="ujxeKUffUeWoLccXir3N-33" style="edgeStyle=orthogonalEdgeStyle;rounded=0;orthogonalLoop=1;jettySize=auto;html=1;exitX=0;exitY=0.5;exitDx=0;exitDy=0;entryX=1.032;entryY=0.656;entryDx=0;entryDy=0;entryPerimeter=0;" parent="1" source="ujxeKUffUeWoLccXir3N-30" target="ujxeKUffUeWoLccXir3N-26" edge="1">
          <mxGeometry relative="1" as="geometry">
            <mxPoint x="-400" y="552" as="targetPoint" />
            <Array as="points" />
          </mxGeometry>
        </mxCell>
        <mxCell id="ujxeKUffUeWoLccXir3N-36" value="Get/Create cache entry" style="edgeLabel;html=1;align=center;verticalAlign=middle;resizable=0;points=[];" parent="ujxeKUffUeWoLccXir3N-33" vertex="1" connectable="0">
          <mxGeometry x="0.0612" y="-2" relative="1" as="geometry">
            <mxPoint x="-20" as="offset" />
          </mxGeometry>
        </mxCell>
        <mxCell id="ujxeKUffUeWoLccXir3N-34" style="edgeStyle=orthogonalEdgeStyle;rounded=0;orthogonalLoop=1;jettySize=auto;html=1;entryX=0.5;entryY=1;entryDx=0;entryDy=0;exitX=0;exitY=0.5;exitDx=0;exitDy=0;" parent="1" source="ujxeKUffUeWoLccXir3N-30" target="ujxeKUffUeWoLccXir3N-25" edge="1">
          <mxGeometry relative="1" as="geometry">
            <Array as="points">
              <mxPoint x="-260" y="565" />
              <mxPoint x="-260" y="450" />
              <mxPoint x="-470" y="450" />
            </Array>
          </mxGeometry>
        </mxCell>
        <mxCell id="ujxeKUffUeWoLccXir3N-35" value="Get persisted short.ly on cache miss" style="edgeLabel;html=1;align=center;verticalAlign=middle;resizable=0;points=[];" parent="ujxeKUffUeWoLccXir3N-34" vertex="1" connectable="0">
          <mxGeometry x="0.1563" y="-1" relative="1" as="geometry">
            <mxPoint as="offset" />
          </mxGeometry>
        </mxCell>
        <mxCell id="pKKKAvLooT5i3rfptj-m-5" value="Write Usage Stats" style="edgeLabel;html=1;align=center;verticalAlign=middle;resizable=0;points=[];" vertex="1" connectable="0" parent="1">
          <mxGeometry x="-289.9961591825253" y="724.9994334970288" as="geometry" />
        </mxCell>
      </root>
    </mxGraphModel>
  </diagram>
</mxfile>
